<svg
  xmlns="http://www.w3.org/2000/svg"
  width="1200"
  height="630"
  viewBox="0 0 1200 630"
  role="img"
  aria-labelledby="title desc"
>
  <title id="title">专注格 | Focus Grid - Schulte Grid Attention Trainer</title>
  <desc id="desc">
    A Mario Studio Schulte Grid attention training game preview.
  </desc>
  <rect width="1200" height="630" fill="#f4f1e8" />
  <rect
    x="88"
    y="72"
    width="1024"
    height="486"
    rx="28"
    fill="#fffdf7"
    stroke="#20201d"
    stroke-width="6"
  />
  <text
    x="128"
    y="154"
    fill="#111111"
    font-family="Arial, Helvetica, sans-serif"
    font-size="64"
    font-weight="800"
  >
    Focus Grid / 专注格
  </text>
  <text
    x="128"
    y="206"
    fill="#5d5d57"
    font-family="Arial, Helvetica, sans-serif"
    font-size="30"
  >
    争分夺秒觅数字，聚精会神练专注
  </text>
  <g transform="translate(128 250)">
    <rect width="330" height="330" fill="#20201d" />
    <g
      fill="#fffefa"
      stroke="#20201d"
      stroke-width="4"
      font-family="Arial, Helvetica, sans-serif"
      font-size="44"
      font-weight="800"
      text-anchor="middle"
      dominant-baseline="central"
    >
      <rect x="0" y="0" width="110" height="110" />
      <text x="55" y="55" fill="#111111">7</text>
      <rect x="110" y="0" width="110" height="110" />
      <text x="165" y="55" fill="#111111">1</text>
      <rect x="220" y="0" width="110" height="110" />
      <text x="275" y="55" fill="#111111">9</text>
      <rect x="0" y="110" width="110" height="110" />
      <text x="55" y="165" fill="#111111">4</text>
      <rect x="110" y="110" width="110" height="110" />
      <text x="165" y="165" fill="#111111">6</text>
      <rect x="220" y="110" width="110" height="110" />
      <text x="275" y="165" fill="#111111">2</text>
      <rect x="0" y="220" width="110" height="110" />
      <text x="55" y="275" fill="#111111">8</text>
      <rect x="110" y="220" width="110" height="110" />
      <text x="165" y="275" fill="#111111">3</text>
      <rect x="220" y="220" width="110" height="110" />
      <text x="275" y="275" fill="#111111">5</text>
    </g>
  </g>
  <text
    x="520"
    y="315"
    fill="#0b6b57"
    font-family="Arial, Helvetica, sans-serif"
    font-size="44"
    font-weight="800"
  >
    Train focus with speed.
  </text>
  <text
    x="520"
    y="370"
    fill="#111111"
    font-family="Arial, Helvetica, sans-serif"
    font-size="28"
  >
    Countdown levels · Tutorial mode · Bilingual UI
  </text>
  <text
    x="520"
    y="425"
    fill="#5d5d57"
    font-family="Arial, Helvetica, sans-serif"
    font-size="24"
  >
    mario.studio/focus-grid
  </text>
</svg>
